PathFileType	4	(X/Y/Z)	RBDS04\RBDS04runT25.trc
DataRate	CameraRate	NumFrames	NumMarkers	Units	OrigDataRate	OrigDataStartFrame	OrigNumFrames
150.000000	150.000000	6	33	mm	150.000000	562	4500
Frame#	Time	L.ASIS			L.Heel.Bottom			L.Heel.Lateral			L.Heel.Top			L.Iliac.Crest			L.MT1			L.MT5			L.PSIS			L.Shank.Bottom.Lateral			L.Shank.Bottom.Medial			L.Shank.Top.Lateral			L.Shank.Top.Medial			L.Thigh.Bottom.Lateral			L.Thigh.Bottom.Medial			L.Thigh.Top.Lateral			L.Thigh.Top.Medial			R.ASIS			R.ASY			R.Heel.Bottom			R.Heel.Lateral			R.Heel.Top			R.Iliac.Crest			R.MT1			R.MT5			R.PSIS			R.Shank.Bottom.Lateral			R.Shank.Bottom.Medial			R.Shank.Top.Lateral			R.Shank.Top.Medial			R.Thigh.Bottom.Lateral			R.Thigh.Bottom.Medial			R.Thigh.Top.Lateral			R.Thigh.Top.Medial			
		X1	Y1	Z1	X2	Y2	Z2	X3	Y3	Z3	X4	Y4	Z4	X5	Y5	Z5	X6	Y6	Z6	X7	Y7	Z7	X8	Y8	Z8	X9	Y9	Z9	X10	Y10	Z10	X11	Y11	Z11	X12	Y12	Z12	X13	Y13	Z13	X14	Y14	Z14	X15	Y15	Z15	X16	Y16	Z16	X17	Y17	Z17	X18	Y18	Z18	X19	Y19	Z19	X20	Y20	Z20	X21	Y21	Z21	X22	Y22	Z22	X23	Y23	Z23	X24	Y24	Z24	X25	Y25	Z25	X26	Y26	Z26	X27	Y27	Z27	X28	Y28	Z28	X29	Y29	Z29	X30	Y30	Z30	X31	Y31	Z31	X32	Y32	Z32	X33	Y33	Z33	

563	3.746666666666667	2146.784949057121	917.2930505685558	923.6413068347941	1734.772627249561	356.2010214192139	938.8946909026693	1764.000449152777	334.0090375651218	897.1039017890255	1781.612217796044	363.2055465728357	940.38474862111	2088.906718277381	983.8813202037925	877.0685990132171	1828.917534206376	162.2932170147174	972.6758212710822	1806.357171637196	187.9643596164142	875.6434517216577	1981.77311216384	958.9249815919304	976.9243010954876	1893.211358248285	340.2875698232012	889.4217240698011	1875.036309577866	380.0181688807787	915.3077105517021	1964.876851595114	377.0287414426719	878.6035322246789	1949.76804108541	418.9513375675923	907.5610884407903	2164.300971457638	569.5475426967004	854.0900599739045	2103.660237552911	547.6874409721198	888.7668621579808	2119.176005040103	669.5925042387732	843.0416243318488	2061.385602173881	649.2382695212382	874.9274025810043	2142.993348760064	921.3823299832005	1116.495019512169	2017.590163374402	82.65853073581633	1050.273737950798	1846.474937772476	36.43976598093722	1034.22841878751	1875.349626973721	50.45687363203917	1077.650447399416	1858.181754338263	81.11838088394806	1036.059626006469	2087.687021587409	976.0271183931313	1162.393420871141	2061.964223735634	49.60814853558289	1016.622019796703	2026.025830713063	39.39572582681268	1111.297327073553	1981.456507596897	963.3520363507805	1060.892004521508	1956.732031768911	161.1989688009734	1100.07169180708	1922.653432609975	186.9074586785028	1066.2466858996	1985.429389828476	233.9009996861636	1123.156908722708	1953.082281451558	257.8154880043269	1086.792296990581	2096.203945460843	549.5075290575081	1166.076677899561	2038.354026430716	541.3138597570685	1120.957441743797	2064.662448153304	654.3257219472979	1184.176156370527	2009.171715552121	645.7646396391611	1141.841717942264	
564	3.753333333333333	2146.768157064436	920.8193148745651	924.6334806123886	1745.480833352962	345.8711397773526	939.5773005553523	1775.69935035223	324.7613828999628	898.0949807837233	1791.959030242255	354.9457894845377	941.1378346248013	2088.466157389871	987.3879815033785	877.7484249136184	1847.541420360211	156.4047731154837	974.4898762157512	1824.14719436785	180.6309289598474	877.2345197625875	1981.537602975328	962.2532027490447	977.4296873697403	1904.714611311528	336.0335999431097	890.2945567789391	1885.166537786471	375.1608128702031	916.0375841532762	1975.050527710441	375.1500891855853	879.3218901611972	1958.521279325761	416.6187637161976	908.0974614773824	2170.025330895227	575.3209535640127	853.8511791411258	2109.678458576655	552.0255478365664	888.1016613787032	2122.790546312942	674.409135447304	842.9011411642159	2065.258225310844	652.6792073144603	874.3722912241939	2142.517959246716	923.5257956072766	1117.355493718035	2001.406352582236	83.33111164496383	1050.950746290101	1829.785361583796	39.13974842808	1034.716698081151	1858.812250590003	52.34508659323747	1078.253935105127	1842.006939130092	83.6685735976814	1036.987255221809	2088.661627164566	979.2125225299673	1162.602450807966	2045.125273370891	49.52435819437856	1016.703259846485	2009.078783990645	39.31374010297247	1111.396553557518	1981.387396669224	966.2697731286295	1061.55367190509	1941.056592372562	163.8982666796012	1100.493448126601	1907.037468876872	189.7926362532909	1066.579064516271	1970.409102483406	236.412703203763	1123.334487908678	1938.088075009259	260.4662303967081	1086.986629780514	2086.730861413188	551.2961790481912	1165.883346821284	2028.325780831165	544.688429055818	1121.220445394116	2058.313837771332	656.9319702681081	1184.239114751173	2002.363114583676	650.0139425372595	1142.14995830842	
565	3.76	2146.926790258307	924.8471360165551	925.6419771781682	1756.542183695987	334.602594836477	940.4273500170292	1787.685871091477	314.6760410915738	899.1982576729982	1802.522630844452	345.8610210164941	941.9658137089478	2088.138578080232	991.3650230775295	878.3480115633728	1866.851773997207	150.2943069760319	976.4655574706885	1842.470514467474	172.896756120928	878.9938633606453	1981.469879834321	966.032993305029	977.8827151934199	1916.291425755581	331.3776843473067	891.2551751532777	1895.252936583633	369.788082608146	916.8380151077941	1985.087563023608	373.049104938728	880.089527452388	1967.011997050298	413.955879269425	908.6822714110182	2175.455222625362	581.5559359144263	853.6496676115629	2115.377641756629	556.9547259655891	887.4449096337112	2126.296768711841	679.7165400077898	842.7218786838173	2069.004721884909	656.7282074056562	873.7575320579275	2142.218563878106	926.0376561387499	1118.195490902267	1985.536935281769	84.17961771780604	1051.703634606606	1813.305497666407	42.63403376493716	1035.226222320209	1842.542360273857	54.87295141538778	1078.863685924623	1826.164629219281	86.94800429050157	1037.984526424239	2089.903478251367	982.6901697134471	1162.750539057205	2028.35299567154	49.443993339071	1016.757811975852	1992.164084133837	39.3151342927151	1111.4585333416	1981.519245380371	969.5838949946118	1062.193369402497	1925.579058781206	167.2276099453775	1100.940721225225	1891.572269274597	193.2411142234704	1066.916978540386	1955.459885600211	239.6062245877373	1123.529377329318	1923.173582353832	263.7520342188535	1087.149768614324	2077.150536237639	553.7117377682434	1165.622063589258	2018.389744662831	548.8127100299148	1121.212003860935	2051.932982622488	660.0753135486304	1184.212786013369	1995.672817598199	654.9165638313759	1142.20746477024	
566	3.766666666666667	2147.225879463855	929.3091668077777	926.6121513702419	1768.037687431095	322.4638152899464	941.4482966292293	1800.041444090925	303.8208292777904	900.411344736818	1813.372982606326	335.9952579869131	942.8749733246278	2087.877257565221	995.7734704098892	878.8535209632048	1886.852149777801	144.0594874955038	978.5690359135513	1861.368864480357	164.8597542832539	880.9026789884986	1981.566331040027	970.2088019044385	978.2916290752561	1927.975387902659	326.342078762005	892.301551193656	1905.35076952227	363.9158485516367	917.7170478593197	1995.013052119918	370.7155730153682	880.9055608663408	1975.281680069377	410.9410495667628	909.3202298475071	2180.558962102572	588.1445319969738	853.4832791270447	2120.731088179291	562.3713068680744	886.820252218269	2129.666107070319	685.4192629476075	842.5064613931413	2072.596918865669	661.2969925102234	873.1030707038627	2142.112910073325	928.8808196504996	1118.97075779955	1970.06231154103	85.15788051399964	1052.535352654797	1797.127198666307	46.99622190148119	1035.73916597305	1826.626230761086	58.10702985898456	1079.462036793219	1810.765681155185	91.01319340311257	1039.023896030949	2091.373566038184	986.3999794172465	1162.830499886503	2011.680567639752	49.34443573093282	1016.808376891169	1975.308815820508	39.3918433535865	1111.496446360684	1981.859419163565	973.2544706969983	1062.814575057319	1910.377581297946	171.1750186167058	1101.427029761075	1876.3799545648	197.2436279081943	1067.25380681662	1940.6512558542	243.4682131975592	1123.764377229915	1908.445573896644	267.6601982197471	1087.280755156373	2067.542588570671	556.7331270802014	1165.348651202403	2008.626926465774	553.6347338827483	1120.990697920932	2045.570788030026	663.7345478024578	1184.128759208275	1989.161308181527	660.4244176097516	1142.045202347573	
567	3.773333333333333	2147.632161962385	934.1241883769216	927.4923774534076	1780.0508315666	309.5343321482519	942.6400421046224	1812.850847920283	292.2709706137226	901.7321157389661	1824.588335667003	325.4018328044924	943.8711404289346	2087.65114850332	1000.56392961112	879.2597291117971	1907.537445154883	137.7885948544748	980.7636959415111	1880.878172159163	156.6119264804467	882.9395792917194	1981.822208344381	974.7157923457013	978.6645173738274	1939.805774257049	320.9498926105446	893.4277969203526	1915.5226578072	357.5617919915751	918.681114885338	2004.857004548982	368.1392337385526	881.7661985841738	1983.379710990497	407.5529728770914	910.0150572068621	2185.300002880246	594.9709604110972	853.350492415085	2125.706156815564	568.1603191755651	886.2498861958362	2132.861215612283	691.4131285326773	842.2623533840564	2075.999699733303	666.2863699852958	872.4360434955325	2142.212562622441	932.0091122130112	1119.641986908568	1955.052530218202	86.21120918859211	1053.447793694948	1781.3453433014	52.26944521520941	1036.244564737548	1811.146425725503	62.08940320169432	1080.038528296192	1795.920262431612	95.89051635340967	1040.081618232437	2093.033581962634	990.29654966381	1162.833007097908	1995.142252419674	49.20302758861281	1016.878362786831	1958.543790974405	39.53456763746434	1111.527406634266	1982.408940367987	977.2343881746735	1063.417591295623	1895.527156148087	175.7033623207801	1101.96864890544	1861.582729740438	201.7654506754894	1067.582344947749	1926.051350238182	247.9618527243684	1124.06115680173	1894.008870501958	272.1502910358319	1087.378126073094	2057.989450849922	560.3292309380394	1165.119754231752	1999.110099189014	559.084534576014	1120.629603638888	2039.27911287795	667.8822341943591	1184.021488832854	1982.879760038487	666.4728650265021	1141.710204055669	
568	3.78	2148.11766535968	939.2007871750808	928.2398111683458	1792.665690553866	295.9040016684361	943.9988278943913	1826.198616282253	280.1082178530647	903.1579438981328	1836.253392960212	314.1433353981076	944.9588652596012	2087.448259809327	1005.675841240278	879.5704009247376	1928.892463406272	131.5574267675995	983.0110859826714	1901.024007554991	148.236918207633	885.0794754550409	1982.23207333062	979.4826220635317	979.0072647227041	1951.825318515429	315.2251856373989	894.6239776819159	1925.836310978042	350.7456198880655	919.7334412296539	2014.652254475579	365.3097841067006	882.6638351358612	1991.361385108963	403.7718009643089	910.7680875560816	2189.638070026638	601.9150991403974	853.2522322388869	2130.26374016253	574.200044186308	885.7532080120021	2135.838726705521	697.5890485486512	842.0026463883377	2079.172483368031	671.5904804587547	871.7895020956903	2142.521847835998	935.3691743186617	1120.179625308279	1940.561373365689	87.28546868421203	1054.443206654691	1766.053434999798	58.46403965477071	1036.743309246753	1796.178330763399	66.83486980189123	1080.594366822828	1781.731071663669	101.5746912219921	1041.144312697127	2094.846330421617	994.3492469949243	1162.747554029557	1978.77285794646	49.00493945860104	1016.99038137531	1941.904520467898	39.73745824132836	1111.572444976442	1983.16204693597	981.4701954633767	1063.99811143599	1881.099595118902	180.754518402768	1102.585727034824	1847.296207566097	206.750384139225	1067.899986517524	1911.730179846792	253.0304557468427	1124.440446630012	1879.964423191647	277.1589248293265	1087.444501021517	2048.573105071762	564.4591741534692	1164.985615438075	1989.904226132989	565.0782740541163	1120.203930199351	2033.107857429615	672.4834613286851	1183.922828183279	1976.870598487309	672.9829221274809	1141.254920511311	
